<svg xmlns="http://www.w3.org/2000/svg" viewBox="0 0 256 256" role="img" aria-hidden="true">
  <path fill="#0065A9" d="M255.001 56.638 176.996 4.596a14.497 14.497 0 0 0-16.537 2.819L0 132.839v90.177l160.459 125.388a14.498 14.498 0 0 0 16.537 2.82l78.005-52.042a14.5 14.5 0 0 0 0-24.136l-67.67-45.113 67.67-45.114a14.5 14.5 0 0 0 0-24.135z"/>
  <path fill="#007ACC" d="M160.459 248.424V132.839L76.996 71.037v114.001l83.463 63.386z"/>
  <path fill="#1F9CF0" d="M76.996 71.037 160.459 132.84 243.922 71.037 160.459 9.234 76.996 71.037z"/>
</svg>
